# xmcd
#
# Track frame offsets:
#	150
#	15111
#	29343
#	48154
#	53431
#	71758
#	84649
#	102678
#	120820
#	137161
#	157196
#	172844
#	190445
#	205007
#
# Disc length: 2979 seconds
#
# Revision: 1
# Processed by: cddbd v1.5.2PL0 Copyright (c) Steve Scherf et al.
# Submitted via: audiograbber 1.83.01
#
DISCID=b10ba10e
DTITLE=IRAH CALDEIRA - CANTADEIRA
DYEAR=1900
DGENRE=FORRÓ
TTITLE0=MÃE
TTITLE1=SIÁ FILIÇA
TTITLE2=MENTIRAS DO VENTO
TTITLE3=DE SONHO E PÓ(POEMA)
TTITLE4=DA COR DO CHÃO
TTITLE5=ATÉ
TTITLE6=QUERO TE VER
TTITLE7=TÁ VENDO SÓ
TTITLE8=CANTO DO ROUXINOL
TTITLE9=AVOANTE
TTITLE10=CANÇÃO PRIMEIRA
TTITLE11=A POEIRA E A ESTRADA
TTITLE12=LUGAR MAIS BELO
TTITLE13=A NATUREZA DAS COISAS
EXTD=
EXTT0=
EXTT1=
EXTT2=
EXTT3=
EXTT4=
EXTT5=
EXTT6=
EXTT7=
EXTT8=
EXTT9=
EXTT10=
EXTT11=
EXTT12=
EXTT13=
PLAYORDER=
